<svg width="452" height="452" xmlns="http://www.w3.org/2000/svg" xmlns:xlink="http://www.w3.org/1999/xlink" overflow="hidden"><defs><clipPath id="clip0"><path d="M398 128 850 128 850 580 398 580Z" fill-rule="evenodd" clip-rule="evenodd"/></clipPath><clipPath id="clip1"><path d="M398 129 849 129 849 579 398 579Z" fill-rule="evenodd" clip-rule="evenodd"/></clipPath><clipPath id="clip2"><path d="M398 129 849 129 849 579 398 579Z" fill-rule="evenodd" clip-rule="evenodd"/></clipPath><clipPath id="clip3"><path d="M398 129 849 129 849 579 398 579Z" fill-rule="evenodd" clip-rule="evenodd"/></clipPath><clipPath id="clip4"><path d="M565 276 682 276 682 393 565 393Z" fill-rule="evenodd" clip-rule="evenodd"/></clipPath><clipPath id="clip5"><path d="M565 276 682 276 682 393 565 393Z" fill-rule="evenodd" clip-rule="evenodd"/></clipPath><clipPath id="clip6"><path d="M565 276 682 276 682 393 565 393Z" fill-rule="evenodd" clip-rule="evenodd"/></clipPath><clipPath id="clip7"><path d="M565 370 682 370 682 486 565 486Z" fill-rule="evenodd" clip-rule="evenodd"/></clipPath><clipPath id="clip8"><path d="M565 370 682 370 682 486 565 486Z" fill-rule="evenodd" clip-rule="evenodd"/></clipPath><clipPath id="clip9"><path d="M565 370 682 370 682 486 565 486Z" fill-rule="evenodd" clip-rule="evenodd"/></clipPath><clipPath id="clip10"><path d="M640 406 661 406 661 428 640 428Z" fill-rule="evenodd" clip-rule="evenodd"/></clipPath><clipPath id="clip11"><path d="M640 406 661 406 661 428 640 428Z" fill-rule="evenodd" clip-rule="evenodd"/></clipPath><clipPath id="clip12"><path d="M640 406 661 406 661 428 640 428Z" fill-rule="evenodd" clip-rule="evenodd"/></clipPath></defs><g clip-path="url(#clip0)" transform="translate(-398 -128)"><g clip-path="url(#clip1)"><g clip-path="url(#clip2)"><g clip-path="url(#clip3)"><path d="M225 145.313C245.711 145.313 262.5 128.523 262.5 107.813 262.5 87.1017 245.711 70.3125 225 70.3125 204.289 70.3125 187.5 87.1017 187.5 107.813 187.523 128.513 204.299 145.289 225 145.313ZM225 79.6875C240.533 79.6875 253.125 92.2795 253.125 107.813 253.125 123.345 240.533 135.938 225 135.938 209.467 135.938 196.875 123.345 196.875 107.813 196.893 92.287 209.475 79.7058 225 79.6875Z" fill="#005F87" transform="matrix(1.00222 0 -0 1 398 129)"/><path d="M107.813 342.188C128.523 342.188 145.313 325.398 145.313 304.688 145.313 283.977 128.523 267.188 107.813 267.188 87.1017 267.188 70.3125 283.977 70.3125 304.688 70.3359 325.388 87.1116 342.164 107.813 342.188ZM107.813 276.563C123.345 276.563 135.938 289.155 135.938 304.688 135.938 320.22 123.345 332.813 107.813 332.813 92.2795 332.813 79.6875 320.22 79.6875 304.688 79.7058 289.162 92.287 276.581 107.813 276.563Z" fill="#005F87" transform="matrix(1.00222 0 -0 1 398 129)"/><path d="M351.563 239.063C351.551 244.016 351.253 248.965 350.667 253.884 353.782 254.402 356.843 255.209 359.808 256.294 367.753 195.148 333.427 136.345 276.277 113.198 275.945 116.364 275.317 119.492 274.402 122.541 321.145 142.413 351.511 188.27 351.563 239.063Z" fill="#005F87" transform="matrix(1.00222 0 -0 1 398 129)"/><path d="M225 365.625C196.582 365.647 168.994 356.055 146.719 338.409 144.652 340.8 142.371 342.997 139.903 344.972 189.557 385.006 260.405 385.006 310.059 344.972 307.592 342.997 305.31 340.8 303.244 338.409 280.979 356.047 253.404 365.639 225 365.625Z" fill="#005F87" transform="matrix(1.00222 0 -0 1 398 129)"/><path d="M99.3328 253.884C92.6405 197.996 123.75 144.427 175.608 122.541 174.692 119.492 174.064 116.364 173.733 113.198 116.583 136.345 82.2567 195.148 90.2016 256.294 93.1641 255.21 96.2208 254.403 99.3328 253.884Z" fill="#005F87" transform="matrix(1.00222 0 -0 1 398 129)"/><path d="M304.688 304.688C304.688 325.398 321.477 342.188 342.188 342.188 362.898 342.188 379.688 325.398 379.688 304.688 379.688 283.977 362.898 267.188 342.188 267.188 321.487 267.211 304.711 283.987 304.688 304.688ZM370.313 304.688C370.313 320.22 357.72 332.813 342.188 332.813 326.655 332.813 314.063 320.22 314.063 304.688 314.063 289.155 326.655 276.563 342.188 276.563 357.713 276.581 370.294 289.162 370.313 304.688Z" fill="#005F87" transform="matrix(1.00222 0 -0 1 398 129)"/></g></g></g><g clip-path="url(#clip4)"><g clip-path="url(#clip5)"><g clip-path="url(#clip6)"><path d="M663.26 322.18C662.291 316.213 659.006 310.87 654.12 307.311 649.054 303.762 642.757 302.441 636.692 303.655 631.91 296.312 623.751 291.872 614.988 291.844 612.979 291.843 610.977 292.081 609.024 292.553 598.642 295.254 590.872 303.889 589.28 314.498 582.412 314.738 576.015 318.049 571.852 323.517 566.985 330.36 566.103 339.267 569.534 346.931 573.028 354.467 580.377 359.475 588.668 359.972L597.565 359.972 612.563 360.008 612.563 357.571 597.566 357.534 588.744 357.534C581.388 357.066 574.875 352.618 571.762 345.938 568.708 339.073 569.488 331.108 573.814 324.965 577.546 320.109 583.246 317.167 589.365 316.935L591.39 316.863 591.689 314.86C593.113 305.222 600.165 297.371 609.595 294.926 611.361 294.499 613.171 294.282 614.988 294.281 622.932 294.285 630.332 298.313 634.649 304.981L635.551 306.362 637.168 306.037C642.567 304.957 648.172 306.128 652.688 309.278 657.045 312.469 659.977 317.242 660.853 322.571L661.14 324.325 662.897 324.588C671.986 325.867 678.317 334.273 677.037 343.361 675.908 351.381 669.162 357.419 661.067 357.656L648.148 357.656 634.498 357.623 634.498 360.061 648.148 360.094 661.067 360.094C671.587 359.823 679.896 351.075 679.626 340.555 679.387 331.257 672.469 323.49 663.26 322.18Z" fill="#005F87"/><path d="M624.719 377.156 624.719 328.94C624.719 328.933 624.724 328.928 624.731 328.928 624.734 328.928 624.737 328.929 624.739 328.932L640.92 345.112 642.643 343.388 623.5 324.245 604.357 343.388 606.08 345.112 622.261 328.932C622.265 328.927 622.273 328.927 622.278 328.932 622.28 328.934 622.281 328.937 622.281 328.94L622.281 377.156Z" fill="#005F87"/></g></g></g><g clip-path="url(#clip7)"><g clip-path="url(#clip8)"><g clip-path="url(#clip9)"><path d="M67.6667 64.4706 67.6667 47.554 34.9051 64.5419 31.3321 15.7083 19.4179 15.7083 15.7083 66.4583 15.7083 100.292 100.292 100.292 100.292 47.554ZM29.0846 18.125 29.5268 24.1667 21.2232 24.1667 21.6654 18.125ZM21.0455 26.5833 29.7045 26.5833 32.5332 65.25 18.2168 65.25ZM34.1958 67.6292 65.25 51.5294 65.25 68.446 97.875 51.5294 97.875 97.875 18.125 97.875 18.125 67.6667 32.7096 67.6667Z" fill="#005F87" transform="matrix(1.00862 0 -0 1 565 370)"/><path d="M24.1667 90.625 43.5 90.625 43.5 78.5417 24.1667 78.5417ZM41.0833 88.2083 35.0417 88.2083 35.0417 80.9583 41.0833 80.9583ZM26.5833 80.9583 32.625 80.9583 32.625 88.2083 26.5833 88.2083Z" fill="#005F87" transform="matrix(1.00862 0 -0 1 565 370)"/><path d="M48.3333 90.625 67.6667 90.625 67.6667 78.5417 48.3333 78.5417ZM65.25 88.2083 59.2083 88.2083 59.2083 80.9583 65.25 80.9583ZM50.75 80.9583 56.7917 80.9583 56.7917 88.2083 50.75 88.2083Z" fill="#005F87" transform="matrix(1.00862 0 -0 1 565 370)"/><path d="M91.8333 78.5417 72.5 78.5417 72.5 90.625 91.8333 90.625ZM74.9167 80.9583 80.9583 80.9583 80.9583 88.2083 74.9167 88.2083ZM89.4167 88.2083 83.375 88.2083 83.375 80.9583 89.4167 80.9583Z" fill="#005F87" transform="matrix(1.00862 0 -0 1 565 370)"/></g></g></g><g clip-path="url(#clip10)"><g clip-path="url(#clip11)"><g clip-path="url(#clip12)"><path d="M16.9312 5.29375 15.0938 2.625 15.0938 1.8375C15.0938 1.64063 14.8531 1.55313 14.7219 1.68437L11.7031 4.50625C11.3531 4.83437 11.1563 5.29375 11.1563 5.775L11.1563 5.90625C11.1563 7.76563 6.125 8.53125 6.125 14.4375 6.125 15.225 6.16875 15.9031 6.27813 16.4719 6.23438 16.4281 6.19062 16.3844 6.125 16.3406 5.62188 15.8594 5.03125 14.7875 5.03125 12.4688 5.03125 11.6594 5.425 10.8281 5.81875 10.0406 6.43125 8.77187 7.13125 7.32813 5.92812 6.10313 5.66563 5.84063 5.25 5.84063 5.00938 6.10313 4.74688 6.36562 4.74688 6.78125 5.00938 7.02187 5.5125 7.525 5.29375 8.11562 4.65937 9.45 4.2 10.3469 3.71875 11.375 3.71875 12.4688 3.71875 14.7219 4.24375 16.3625 5.25 17.325 5.775 17.8281 6.34375 18.025 6.7375 18.1125 7.15313 18.9875 7.65625 19.25 7.875 19.25L10.5 19.25C10.8719 19.25 11.1563 18.9656 11.1563 18.5938 11.1563 18.2656 10.9156 17.9812 10.5875 17.9375L9.84375 17.9375C10.675 17.4781 11.375 16.5375 11.375 14.875 11.375 13.4313 11.0906 12.8406 10.1281 12.3156 9.975 12.2281 9.90938 12.0313 9.99687 11.8781 10.0844 11.725 10.2813 11.6594 10.4344 11.7469 11.7688 12.4469 12.0313 13.4313 12.0313 14.875 12.0313 15.6625 11.8781 16.3625 11.5938 16.9531L11.5938 18.5938C11.5938 18.9656 11.8781 19.25 12.25 19.25 12.6219 19.25 12.9063 18.9656 12.9063 18.5938L12.9063 16.5813C13.0594 16.4063 13.2125 16.2094 13.3438 15.9906L13.3438 18.5938C13.3438 18.9656 13.6281 19.25 14 19.25 14.3719 19.25 14.6563 18.9656 14.6563 18.5938L14.6563 12.775C14.8094 12.1188 14.875 11.55 14.875 11.1563 14.875 9.42812 14.4375 9.25313 14.4375 8.3125 14.4375 7.83125 14.8313 7.4375 15.3125 7.4375 16.275 7.4375 17.0625 6.65 17.0625 5.6875 17.0625 5.53437 17.0188 5.40313 16.9312 5.29375Z" fill="#005F87" transform="matrix(1 0 -0 1.04762 640 406)"/></g></g></g></g></svg>